<svg width="24" height="24" viewBox="0 0 24 24" fill="none" xmlns="http://www.w3.org/2000/svg">
<path d="M12 6C9.72 6 8 7.72 8 10C8 12.28 9.72 14 12 14C14.28 14 16 12.28 16 10C16 7.72 14.28 6 12 6ZM12 12C10.82 12 10 11.18 10 10C10 8.82 10.82 8 12 8C13.18 8 14 8.82 14 10C14 11.18 13.18 12 12 12Z" fill="black"/>
<path d="M12 2C6.49 2 2 6.49 2 12C2 15.26 3.58 18.16 6 19.98V20H6.03C7.7 21.25 9.76 22 12 22C14.24 22 16.31 21.25 17.97 20H18V19.98C20.42 18.15 22 15.26 22 12C22 6.49 17.51 2 12 2ZM8.18 19.02C8.59 17.85 9.69 17 11 17H13C14.31 17 15.42 17.85 15.82 19.02C14.68 19.64 13.38 20 12 20C10.62 20 9.31 19.65 8.18 19.02ZM17.48 17.81C16.67 16.15 14.97 14.99 13 14.99H11C9.03 14.99 7.34 16.15 6.52 17.81C5.72353 17.0644 5.08884 16.163 4.65534 15.1618C4.22183 14.1606 3.99877 13.081 4 11.99C4 7.58 7.59 3.99 12 3.99C16.41 3.99 20 7.58 20 11.99C20 14.28 19.03 16.35 17.48 17.81Z" fill="black"/>
</svg>
